PathFileType	4	(X/Y/Z)	C:/Users/opensim2020/Desktop/walking_exp_matlab/subject01_walking10_straight_02.trc	
DataRate	CameraRate	NumFrames	NumMarkers	Units	OrigDataRate	OrigDataStartFrame	OrigNumFrames	
100.00	100.00	4	43	mm	100.00	2150	262	
Frame#	Time	LFHD			RFHD			LBHD			RBHD			C7			T10			CLAV			STRN			RBAK			LSHO			LUPA			LELB			LFRM			LWRA			LWRB			LFIN			RSHO			RUPA			RELB			RFRM			RWRA			RWRB			RFIN			LASI			RASI			LPSI			RPSI			LTHI			LKNE			LTIB			LANK			LHEE			LTOE			RTHI			RKNE			RTIB			RANK			RHEE			RTOE			*39			*40			*41			*42			
		X1	Y1	Z1	X2	Y2	Z2	X3	Y3	Z3	X4	Y4	Z4	X5	Y5	Z5	X6	Y6	Z6	X7	Y7	Z7	X8	Y8	Z8	X9	Y9	Z9	X10	Y10	Z10	X11	Y11	Z11	X12	Y12	Z12	X13	Y13	Z13	X14	Y14	Z14	X15	Y15	Z15	X16	Y16	Z16	X17	Y17	Z17	X18	Y18	Z18	X19	Y19	Z19	X20	Y20	Z20	X21	Y21	Z21	X22	Y22	Z22	X23	Y23	Z23	X24	Y24	Z24	X25	Y25	Z25	X26	Y26	Z26	X27	Y27	Z27	X28	Y28	Z28	X29	Y29	Z29	X30	Y30	Z30	X31	Y31	Z31	X32	Y32	Z32	X33	Y33	Z33	X34	Y34	Z34	X35	Y35	Z35	X36	Y36	Z36	X37	Y37	Z37	X38	Y38	Z38	X39	Y39	Z39	X40	Y40	Z40	X41	Y41	Z41	X42	Y42	Z42	X43	Y43	Z43	

132	1.310	-966.69019	-30.22980	1667.52405	-1075.95886	-65.10955	1668.78735	-996.68542	88.05134	1638.22498	-1113.36499	53.74798	1639.49146	-1025.22705	137.62381	1437.35486	-1025.36401	174.40305	1143.24707	-1028.85876	-3.69859	1367.15051	-1023.53918	-47.52267	1213.14880	-1095.03467	197.64644	1240.32141	-866.23547	50.98102	1401.91760	-775.04944	60.56428	1219.20410	-769.00061	52.78950	1067.12000	-746.63074	-14.08126	973.19623	-769.44611	-119.86342	884.01025	-741.90710	-70.05630	864.74152	-733.85187	-135.92816	812.33069	-1178.29871	65.41459	1392.30920	-1272.50769	134.50758	1193.08789	-1275.33972	137.67314	1068.43225	-1307.01855	111.09027	950.81439	-1293.12708	27.45162	835.32111	-1328.91479	73.98331	835.50360	-1328.12769	36.34696	757.25323	-924.22858	4.30108	931.48718	-1140.16003	5.85828	942.66669	-977.07520	191.21632	946.52032	-1122.97485	189.20200	949.73303	-886.70880	56.30485	596.84833	-908.76416	76.68708	463.42090	-908.23779	144.76013	285.20816	-974.31183	192.16321	74.93159	-1027.77368	239.14902	49.41672	-968.01361	46.70665	34.24477	-1212.62183	-25.41389	621.51300	-1193.69202	-67.70582	466.77759	-1195.58545	14.16388	309.70538	-1146.71826	74.21677	113.00636	-1088.59875	121.61939	81.67686	-1164.11865	-50.22187	46.62293	-1055.37366	-53.59576	1704.08716	-3101.88867	1973.20178	1023.32172	-3140.57275	2012.52893	1022.13849			 
133	1.320	-966.79858	-37.11868	1667.03198	-1075.98047	-72.04884	1668.14124	-996.79089	81.19740	1637.86731	-1113.52856	46.84944	1639.01416	-1025.15613	130.95996	1436.97034	-1025.37744	168.04085	1142.87317	-1028.74915	-10.37424	1366.65417	-1023.25037	-54.00600	1212.65491	-1094.92358	191.05446	1239.90210	-866.22662	44.22958	1401.71094	-774.65936	53.02775	1219.19995	-768.84460	45.14630	1067.00867	-746.67834	-22.80674	973.52960	-770.18243	-129.54169	885.82123	-742.38281	-80.11460	865.74292	-734.68597	-146.69029	814.30945	-1178.33533	58.74575	1391.78003	-1272.22363	128.30299	1192.64417	-1274.90479	131.80995	1068.03711	-1306.51599	105.71909	950.29529	-1292.62915	22.49138	834.45276	-1328.29529	69.05077	834.77795	-1327.52075	31.85824	756.35242	-923.85333	-1.62116	931.02863	-1139.86682	-0.82270	942.39557	-977.34912	185.05284	946.08923	-1123.10535	182.69005	949.22046	-886.55811	52.52610	596.62103	-908.50946	73.97081	463.19006	-908.36230	143.11809	285.39993	-974.22876	191.94412	75.46031	-1028.05676	239.06035	49.99871	-968.00055	46.68859	34.21420	-1212.53625	-30.81000	620.68207	-1193.04468	-74.15404	466.40826	-1195.48157	0.90453	306.48743	-1146.89832	50.85892	106.29780	-1089.38855	96.71310	73.55945	-1163.92224	-76.27859	44.66632	-1055.49109	-60.58884	1703.48853	-3101.91724	1973.18408	1023.43378	-3140.62476	2012.63208	1022.18109			 
134	1.330	-966.94110	-43.97934	1666.53406	-1076.11377	-78.98478	1667.53870	-996.84613	74.41947	1637.44238	-1113.67419	39.95582	1638.51013	-1025.16772	124.25269	1436.54944	-1025.54138	161.54073	1142.49109	-1028.79211	-17.05325	1366.15356	-1022.98798	-60.61364	1212.17712	-1094.93335	184.43849	1239.47742	-866.31647	37.45170	1401.37537	-774.36414	45.48156	1219.12988	-768.48199	37.53848	1066.69348	-746.74634	-31.28967	973.91620	-771.01013	-139.05978	887.58350	-743.07117	-90.01968	866.77496	-735.74030	-157.45139	816.35046	-1178.34326	52.02972	1391.27991	-1272.05334	122.01749	1192.16931	-1274.51160	125.84200	1067.58093	-1306.11646	100.32381	949.72504	-1292.20166	17.47956	833.63763	-1327.83813	64.18968	834.07751	-1326.96997	27.37606	755.44757	-923.52386	-7.57599	930.52954	-1139.62854	-7.53909	941.99078	-977.73413	178.88264	945.67773	-1123.44739	176.10381	948.87341	-886.44855	48.68936	596.34210	-908.33728	71.27751	462.94757	-908.24158	141.58528	285.67776	-974.18707	191.71796	75.89832	-1027.79517	238.94127	50.84205	-967.94238	46.65775	34.19588	-1212.49146	-35.92773	619.70599	-1192.40039	-80.63750	465.95804	-1195.38892	-12.20491	303.45926	-1147.32288	27.67389	100.69565	-1089.87244	72.14104	66.14819	-1164.24646	-102.13915	44.19698	-1055.62561	-67.51441	1702.88074	-3101.80835	1973.18518	1023.36316	-3140.74438	2012.52856	1021.96454			 
135	1.340	-967.09650	-50.87268	1665.94763	-1076.27478	-85.91814	1666.87805	-997.07782	67.57632	1637.02283	-1113.80151	33.05340	1637.94604	-1025.28406	117.60612	1436.12378	-1025.80750	155.16318	1142.04089	-1028.87488	-23.73758	1365.69836	-1022.83557	-67.16449	1211.65100	-1095.07764	177.76004	1238.95776	-866.44269	30.66474	1401.01172	-774.37341	38.43467	1218.97119	-767.97577	30.13384	1066.55078	-747.03473	-39.73432	974.09729	-771.88971	-148.52507	889.31738	-743.90509	-99.83144	867.70728	-736.85999	-167.99142	818.40326	-1178.56995	45.28382	1391.00513	-1271.98828	115.76669	1191.76843	-1274.23425	119.81995	1067.12219	-1305.65320	94.79036	949.13586	-1291.76904	12.64646	832.48267	-1327.39429	59.26756	833.31445	-1326.58228	22.79051	754.42719	-923.30511	-13.65415	930.02460	-1139.40808	-14.34098	941.50079	-978.16370	172.58061	945.29248	-1123.80786	169.43536	948.52277	-886.34204	44.69248	596.04712	-908.13556	68.51085	462.76886	-908.52808	139.79932	285.88361	-974.28766	191.42900	76.31306	-1027.82813	238.75076	51.70691	-967.94128	46.66336	34.24374	-1212.28442	-40.72151	618.62891	-1191.66272	-86.90431	465.42010	-1195.07666	-25.18200	300.60126	-1147.65454	4.79906	95.83425	-1090.24561	47.71955	59.34055	-1165.05847	-127.25159	44.47668	-1055.74536	-74.49841	1702.27039	-3101.93262	1973.06873	1023.65265	-3140.81250	2012.54358	1021.99628			 
